<?xml version="1.0" encoding="UTF-8"?>
<svg width="362px" height="94px" viewBox="0 0 362 94" version="1.1" xmlns="http://www.w3.org/2000/svg" xmlns:xlink="http://www.w3.org/1999/xlink">
    <!-- Generator: Sketch 62 (91390) - https://sketch.com -->
    <title>Group 2</title>
    <desc>Created with Sketch.</desc>
    <g id="Page-1" stroke="none" stroke-width="1" fill="none" fill-rule="evenodd">
        <g id="Plus-v4" transform="translate(-26.000000, -31.000000)">
            <g id="Group-2" transform="translate(26.000000, 31.000000)">
                <g id="Group-6">
                    <text id="IN-BUSINESS" font-family="PTSans-Bold, PT Sans" font-size="40" font-weight="bold" fill="#464646">
                        <tspan x="193" y="36">IN </tspan>
                        <tspan x="193" y="83">BUSINESS </tspan>
                    </text>
                    <g id="Group">
                        <path d="M38.5,94 C50.7716049,94 60.2561728,89.9326923 66.9537037,81.7980769 C73.6512346,73.6634615 77,62.0641026 77,47 C77,39.9413919 76.2222222,33.5283883 74.6666667,27.760989 C73.1111111,21.9935897 70.7345679,17.043956 67.537037,12.9120879 C64.3395062,8.78021978 60.3209877,5.5952381 55.4814815,3.35714286 C50.6419753,1.11904762 44.9814815,0 38.5,0 C26.1419753,0 16.6358025,4.06730769 9.98148148,12.2019231 C3.32716049,20.3365385 0,31.9358974 0,47 C0,54.0586081 0.777777778,60.4716117 2.33333333,66.239011 C3.88888889,72.0064103 6.24382716,76.956044 9.39814815,81.0879121 C12.5524691,85.2197802 16.5493827,88.4047619 21.3888889,90.6428571 C26.2283951,92.8809524 31.9320988,94 38.5,94 Z" id="Path" fill="#E74C52" fill-rule="nonzero"></path>
                        <path d="M85.2222222,94 C89.9395712,94 94.2709552,93.3398876 98.2163743,92.0196629 C102.161793,90.6994382 105.506823,88.6310861 108.251462,85.8146067 C110.996101,82.9981273 113.140351,79.4335206 114.684211,75.1207865 C116.22807,70.8080524 117,65.659176 117,59.6741573 L117,0 L100.274854,0 L68.625731,0 L51,0 L51,61.9185393 C51,83.3061798 62.4074074,94 85.2222222,94 Z" id="Path" fill="#EDE76E" fill-rule="nonzero"></path>
                        <polygon id="Path" fill="#4B92EA" fill-rule="nonzero" points="127.472527 94 127.472527 16.3828571 154 16.3828571 154 0 83 0 83 16.3828571 109.657509 16.3828571 109.657509 94"></polygon>
                        <path d="M51.0363846,1.68402042 C68.3454615,6.40032687 77,21.6398853 77,47.4026958 C77,53.8625286 75.7395011,65.6117728 72.4071806,72.3719838 C71.3823914,74.450953 69.8716705,77.5068947 67.2499001,81.0580515 C66.2160294,82.458417 64.1731759,84.5168382 61.1213395,87.233315 C58.5009156,85.5372835 56.1044829,82.3801706 53.9320414,77.7619765 C51.7595998,73.1437823 50.7943809,68.0546655 51.0363846,62.4946262 L51.0363846,1.68402042 Z" id="Path-2" fill="#F8913E"></path>
                    </g>
                </g>
                <path d="M109.693086,84.2137881 C112.826742,79.226537 114.705931,75.7173873 115.330653,73.686339 C115.955375,71.6552907 116.511824,68.3292666 117,63.7082667 L117,-1.20792265e-13 L83,-1.20792265e-13 L83,16.3828571 L109.693086,16.3828571 L109.693086,84.2137881 Z" id="Path-4" fill="#4FB390"></path>
            </g>
        </g>
    </g>
</svg>